<svg width="442" height="110" viewBox="0 0 442 110" fill="none" xmlns="http://www.w3.org/2000/svg">
    <g clip-path="url(#clip0_1_2)">
        <path d="M45.3613 32.5905L90.7807 58.7438V36.9204L45.3323 10.7381L0 36.9494V58.8019L45.3613 32.5905Z" fill="currentColor"/>
        <path d="M83.516 85.0423L90.7807 80.7706V67.3743L45.3323 41.163L0 67.3743V80.8287L7.26478 85.0423L45.3323 63.0155L83.516 85.0423Z" fill="currentColor"/>
        <path d="M45.3613 93.9925L56.8978 100.647L75.8444 89.7499L45.3323 72.14L14.9364 89.7499L33.883 100.647L45.3613 93.9925Z" fill="currentColor"/>
        <path d="M114.539 55.2904V47.33H119.298L123.365 51.9159C126.999 55.9827 131.758 56.7614 137.469 56.8479C144.304 56.8479 150.707 54.5982 150.707 48.8875C150.707 41.8788 138.594 35.0432 131.672 31.1495C125.701 27.775 115.664 23.0161 115.664 15.8344C115.664 2.50927 132.45 0.0865264 137.123 0.0865264C142.92 0.0865264 148.804 1.38442 155.034 3.98022L155.207 11.8541H150.275L147.419 8.39307C144.651 5.10506 140.411 3.20148 136.258 3.20148C128.903 3.20148 124.836 8.39307 124.836 11.335C124.836 17.4784 137.296 21.8912 149.41 29.8516C156.245 34.351 159.36 39.7157 159.36 44.7342C159.36 53.2138 150.794 60.9147 137.728 60.9147C121.894 60.9147 114.539 55.2904 114.539 55.2904ZM202.623 49.7527H208.507C204.7 56.6749 197.345 61.5204 188.952 61.5204C176.665 61.5204 164.898 53.3003 164.898 39.9752C164.898 25.3523 176.665 18.1706 188.952 18.1706H191.115C198.47 18.1706 205.306 22.9295 208.248 29.6786H198.816C195.269 24.2274 190.51 21.2855 185.751 21.2855C179.002 21.2855 175.108 27.2558 175.108 34.8702C175.108 48.0222 184.366 59.2707 192.413 59.2707C197.605 59.2707 201.412 55.2039 202.623 49.7527ZM247.271 60.6551L244.935 60.0494C241.041 59.0111 236.801 59.0111 233.167 60.1359C231.696 60.5686 230.312 60.6551 228.927 60.6551C220.448 60.6551 213.699 53.9925 213.699 45.5995C213.699 37.3795 220.448 30.6304 228.927 30.6304C232.302 30.6304 235.33 31.6687 237.667 33.3127V33.2262C237.667 33.2262 238.359 22.6699 233.686 21.372C228.841 19.9876 227.11 22.843 223.563 28.2076L216.295 28.1211C218.544 22.4104 222.957 18.4301 229.187 18.4301C231.523 18.4301 233.946 18.8628 236.282 19.555C236.282 19.555 247.271 22.9295 247.271 33.2262V60.6551ZM220.707 47.7626C222.698 54.2521 227.63 58.838 232.648 57.7132C237.494 56.5883 239.743 50.2719 237.753 43.5228C235.85 37.1199 230.225 32.534 225.38 33.7453C220.448 34.9567 218.717 41.1866 220.707 47.7626ZM254.107 60.6551V58.3189C256.702 55.2904 258.26 51.1372 258.26 46.9839V13.8442C258.26 9.69097 256.702 5.62422 254.193 2.68232V0.0865264H266.913V47.0704C266.913 51.1372 268.47 55.2904 271.152 58.3189V60.6551H254.107ZM312.079 47.4165H318.482C315.454 55.6366 307.493 61.5204 297.889 61.5204C285.689 61.5204 275.998 51.7429 275.998 39.9752C275.998 27.9481 285.689 18.1706 297.889 18.1706C309.916 18.1706 319.694 27.6885 319.867 39.5426H284.737C285.083 40.5809 285.256 41.7058 285.602 42.9171C288.371 52.4351 294.947 59.2707 301.61 59.2707C307.84 59.2707 311.214 53.3869 312.079 47.4165ZM284.304 35.995H310.868C307.926 26.9963 301.004 21.2855 294.514 21.2855C287.938 21.2855 284.218 27.602 284.218 34.0914C284.218 34.6971 284.218 35.3893 284.304 35.995ZM324.453 60.6551V58.3189C327.135 55.1174 328.866 51.0506 328.866 46.9839V13.8442C328.866 9.69097 327.135 5.5377 324.453 2.50927V0.0865264H342.796V2.50927C339.854 5.5377 338.21 9.69097 338.21 13.8442V46.9839C338.21 51.0506 339.854 55.1174 342.796 58.3189V60.6551H324.453ZM348.421 60.6551V58.3189C351.276 55.2904 352.833 51.1372 352.833 46.9839V32.6205C352.833 28.3807 351.276 24.3139 348.421 21.2855V18.8628H362.178V23.7083C365.12 22.0643 368.495 21.0259 371.61 21.0259C381.733 21.0259 387.271 27.1693 387.271 42.1384V46.9839C387.271 51.1372 388.915 55.2904 391.857 58.3189V60.6551H373.34V58.3189C376.282 55.2904 377.926 51.1372 377.926 46.9839V36.5142C377.926 29.7651 371.783 23.1026 365.726 24.7466C363.563 25.3523 362.178 27.4289 362.178 29.6786V47.0704C362.178 51.1372 363.909 55.2904 366.678 58.3189V60.6551H348.421ZM396.702 60.6551V58.3189C399.385 55.1174 401.115 51.0506 401.115 46.9839V13.8442C401.115 9.69097 399.385 5.5377 396.702 2.50927V0.0865264H415.046V2.50927C412.104 5.5377 410.46 9.69097 410.46 13.8442V46.9839C410.46 51.0506 412.104 55.1174 415.046 58.3189V60.6551H396.702ZM425.689 45.4264V22.4104H419.286V18.8628H425.689V4.49938L435.12 0V18.8628H441.35V22.4104H435.12V44.9073C435.12 48.2818 436.418 51.2237 438.062 53.3869C439.014 54.6848 440.139 55.6365 441.35 56.3288V61.0877C439.36 61.0012 437.283 60.5686 435.12 59.7033C430.102 57.6267 425.689 53.3869 425.689 45.4264Z" fill="currentColor"/>
        <path d="M116.591 101.628V80.3249C116.591 78.3918 115.841 76.5376 114.539 75.1174V73.9733H120.851V84.0727C122.39 83.0865 124.323 82.4158 126.335 82.4158C132.647 82.4158 136.592 86.7159 136.592 92.0813C136.592 97.3677 131.74 101.628 126.335 101.628C125.27 101.628 124.323 101.51 123.376 101.194C121.128 100.405 118.682 100.682 116.591 101.628ZM120.851 93.3831C122.193 97.8016 125.507 100.76 128.781 100.011C131.977 99.2613 133.555 95.119 132.213 90.7005C130.872 86.3609 127.243 83.481 123.968 84.1911C120.733 84.9012 119.51 89.0435 120.851 93.3831ZM136.04 105.258V101.589H137.342L139.867 104.153C139.867 104.153 140.695 105.021 141.721 105.021C142.273 105.021 142.865 104.745 143.457 103.995L148.388 97.5255L140.893 85.8086C140.735 85.5324 140.498 85.3352 140.261 85.1774L137.934 83.6388V82.5342H145.942V83.6388L145.745 83.8755C145.114 84.5461 144.995 85.6902 145.548 86.5187L150.519 94.5272L155.884 86.6765C156.121 86.3214 156.278 85.8875 156.278 85.4535C156.278 84.7829 156.002 84.1516 155.45 83.7571V82.5342H160.578V83.7571L159.474 84.4278C159.237 84.5856 159.04 84.8223 158.882 85.0196L144.522 105.061C144.522 105.061 142.234 107.743 140.104 107.743C138.92 107.743 137.539 107.112 136.04 105.258ZM175.254 101.589V100.524C176.556 99.143 177.266 97.2493 177.266 95.3557V80.246C177.266 78.3524 176.556 76.4587 175.254 75.078V73.9733H183.657V75.078C182.316 76.4587 181.645 78.3524 181.645 80.246V99.7742H187.839C189.93 99.7742 191.942 99.143 193.599 97.92H194.861V101.589H175.254ZM196.479 101.589V100.524C197.583 99.143 198.175 97.2493 198.175 95.3557V88.8068C198.175 86.8737 197.583 85.0196 196.479 83.6388V82.5342H201.923V95.3951C201.923 97.2493 202.554 99.143 203.698 100.524V101.589H196.479ZM199.516 80.7983C198.017 80.7983 196.794 79.5359 196.794 78.0368C196.794 76.4982 198.017 75.2752 199.516 75.2752C201.055 75.2752 202.278 76.4982 202.278 78.0368C202.278 79.5359 201.055 80.7983 199.516 80.7983ZM205.986 101.589V100.524C207.17 99.143 207.88 97.2493 207.88 95.3557V80.246C207.88 78.3524 207.17 76.4982 206.026 75.1569V73.9733H211.825V95.3951C211.825 97.2493 212.535 99.143 213.758 100.524V101.589H205.986ZM216.244 101.589V100.524C217.348 99.143 217.94 97.2493 217.94 95.3557V88.8068C217.94 86.8737 217.348 85.0196 216.244 83.6388V82.5342H221.688V95.3951C221.688 97.2493 222.319 99.143 223.463 100.524V101.589H216.244ZM219.281 80.7983C217.782 80.7983 216.559 79.5359 216.559 78.0368C216.559 76.4982 217.782 75.2752 219.281 75.2752C220.82 75.2752 222.043 76.4982 222.043 78.0368C222.043 79.5359 220.82 80.7983 219.281 80.7983ZM226.027 101.589V100.524C227.132 99.143 227.724 97.2493 227.724 95.3557V88.8068C227.724 86.8737 227.132 85.0196 226.027 83.6388V82.5342H231.472V95.3951C231.472 97.2493 232.103 99.143 233.247 100.524V101.589H226.027ZM229.065 80.7983C227.566 80.7983 226.343 79.5359 226.343 78.0368C226.343 76.4982 227.566 75.2752 229.065 75.2752C230.604 75.2752 231.827 76.4982 231.827 78.0368C231.827 79.5359 230.604 80.7983 229.065 80.7983ZM251.118 101.589L250.053 101.313C248.278 100.839 246.345 100.839 244.688 101.352C244.017 101.549 243.386 101.589 242.755 101.589C238.888 101.589 235.811 98.5512 235.811 94.7245C235.811 90.9766 238.888 87.8995 242.755 87.8995C244.293 87.8995 245.674 88.3729 246.739 89.1224V89.083C246.739 89.083 247.055 84.27 244.924 83.6782C242.715 83.047 241.926 84.3489 240.309 86.7948L236.995 86.7554C238.02 84.1516 240.032 82.3369 242.873 82.3369C243.938 82.3369 245.043 82.5342 246.108 82.8498C246.108 82.8498 251.118 84.3883 251.118 89.083V101.589ZM239.007 95.7107C239.914 98.6695 242.163 100.76 244.451 100.248C246.66 99.7347 247.686 96.8548 246.779 93.7776C245.911 90.8583 243.346 88.7674 241.137 89.3197C238.888 89.872 238.099 92.7125 239.007 95.7107ZM267.332 101.589V100.524L268.832 98.8668C269.187 98.4723 269.423 98.0383 269.423 97.5255V78.0762C269.423 77.5239 269.187 77.0505 268.832 76.6954L267.332 75.078V73.9733H275.735V75.078L274.236 76.6954C273.881 77.0505 273.684 77.5239 273.684 78.0762V86.6765L286.308 76.7349C286.939 76.2615 287.137 75.4725 286.979 74.6834V73.9733H292.975V74.644L291.595 75.1963C290.49 75.6697 289.346 76.2615 288.36 77.0505L277.392 85.8086H280.864L290.017 97.3282C290.608 98.0778 291.24 98.709 292.068 99.3008L293.725 100.524V101.589H285.361V100.524C286.348 99.8531 286.624 98.4723 285.874 97.5649L276.88 86.2425L273.684 88.7674V97.5255C273.684 98.0383 273.881 98.4723 274.236 98.9062L275.735 100.524V101.589H267.332ZM310.215 101.589L309.15 101.313C307.375 100.839 305.442 100.839 303.785 101.352C303.114 101.549 302.483 101.589 301.852 101.589C297.986 101.589 294.909 98.5512 294.909 94.7245C294.909 90.9766 297.986 87.8995 301.852 87.8995C303.39 87.8995 304.771 88.3729 305.836 89.1224V89.083C305.836 89.083 306.152 84.27 304.022 83.6782C301.812 83.047 301.023 84.3489 299.406 86.7948L296.092 86.7554C297.118 84.1516 299.13 82.3369 301.97 82.3369C303.035 82.3369 304.14 82.5342 305.205 82.8498C305.205 82.8498 310.215 84.3883 310.215 89.083V101.589ZM298.104 95.7107C299.011 98.6695 301.26 100.76 303.548 100.248C305.758 99.7347 306.783 96.8548 305.876 93.7776C305.008 90.8583 302.444 88.7674 300.234 89.3197C297.986 89.872 297.197 92.7125 298.104 95.7107ZM313.45 101.589V100.603C314.792 99.143 315.462 97.3282 315.462 95.3557V88.8463C315.462 86.9132 314.792 85.059 313.45 83.6782V82.5342H319.802V84.5856C321.025 83.3626 323.353 82.4158 324.97 82.4158C326.666 82.4158 327.85 83.047 327.85 83.047L327.022 86.637C327.022 86.637 325.246 85.1774 323.076 85.1774C320.197 85.1774 319.802 87.1105 319.802 87.6233V95.3557C319.802 97.3282 320.552 99.143 321.814 100.603V101.589H313.45ZM329.467 110.071V108.927C330.769 107.546 331.479 105.731 331.479 103.798V88.8463C331.479 86.9526 330.769 85.0985 329.467 83.6782V82.5342H333.61C334.793 82.5342 335.859 83.4415 335.859 84.5856C337.239 83.2048 339.291 82.5736 341.303 82.5736C346.786 82.5736 351.678 86.0058 351.678 92.1602C351.678 98.709 346.786 101.747 341.303 101.747C339.291 101.747 337.437 101.155 335.859 100.09V103.838C335.859 105.731 336.529 107.546 337.87 108.966V110.071H329.467ZM335.898 93.5015C337.239 97.92 340.553 100.918 343.788 100.169C347.023 99.3797 348.522 95.2373 347.22 90.8583C345.879 86.4003 342.25 83.5993 338.975 84.3489C335.701 85.0985 334.557 89.1224 335.898 93.5015ZM370.851 95.5529H373.771C372.39 99.3008 368.76 101.983 364.381 101.983C358.819 101.983 354.4 97.5255 354.4 92.1602C354.4 86.6765 358.819 82.2185 364.381 82.2185C369.865 82.2185 374.323 86.5581 374.402 91.9629H358.385C358.543 92.4363 358.622 92.9492 358.779 93.5015C360.042 97.8411 363.04 100.958 366.078 100.958C368.918 100.958 370.457 98.275 370.851 95.5529ZM358.188 90.3454H370.299C368.958 86.2425 365.802 83.6388 362.843 83.6388C359.845 83.6388 358.148 86.5187 358.148 89.4775C358.148 89.7537 358.148 90.0693 358.188 90.3454ZM376.414 101.589V100.524C377.716 99.143 378.426 97.2493 378.426 95.3557V88.8068C378.426 86.8737 377.716 85.0196 376.414 83.6388V82.5342H382.687V84.7434C384.028 83.9938 385.567 83.5204 386.987 83.5204C391.603 83.5204 394.127 86.3214 394.127 93.1464V95.3557C394.127 97.2493 394.877 99.143 396.218 100.524V101.589H387.776V100.524C389.117 99.143 389.867 97.2493 389.867 95.3557V90.5821C389.867 87.505 387.066 84.4672 384.304 85.2168C383.318 85.493 382.687 86.4398 382.687 87.4655V95.3951C382.687 97.2493 383.476 99.143 384.738 100.524V101.589H376.414ZM398.072 101.589V100.524C399.414 99.064 400.124 97.2493 400.124 95.4346V80.246C400.124 78.3524 399.414 76.4587 398.072 75.1174V73.9733H404.385V90.1876L411.683 84.4672L411.407 83.2048V82.5342H417.324V83.2048L414.287 84.4672L407.186 90.1087L409.198 90.0298L416.733 98.275C416.812 98.3934 417.206 98.6695 417.403 98.7879L420.165 100.524V101.589H411.801V100.524C412.788 99.8531 413.064 98.4328 412.314 97.5255L406.633 90.5427L404.385 92.318V95.474C404.385 97.3282 405.055 99.064 406.397 100.524V101.589H398.072ZM420.559 92.1602C420.559 86.2031 425.372 82.3764 430.856 82.3764C436.419 82.3764 441.35 86.0847 441.35 92.1602C441.35 98.275 436.419 101.944 430.856 101.944C425.372 101.944 420.559 98.1567 420.559 92.1602ZM425.609 93.462C426.95 98.0383 430.225 101.234 433.42 100.484C436.537 99.7347 437.997 95.474 436.576 90.8583C435.235 86.3609 431.645 83.2443 428.41 83.9544C425.293 84.6645 424.228 88.8463 425.609 93.462Z" fill="currentColor"/>
    </g>
    <defs>
        <clipPath id="clip0_1_2">
            <rect width="441.35" height="109.549" fill="white"/>
        </clipPath>
    </defs>
</svg>
