<svg width="441.35" height="109.54904230642212" xmlns="http://www.w3.org/2000/svg" viewBox="0 0 369.91304347826093 91.81742301959301" class="css-1j8o68f"><defs id="SvgjsDefs3040"></defs><g id="SvgjsG3041" featurekey="symbolFeature-0" transform="matrix(24.35562303781305,0,0,24.35562303781305,-22.84557643024654,-14.21091042740375)" fill="#6C2207"><g xmlns="http://www.w3.org/2000/svg"><g><polygon fill="#6C2207" points="2.499,1.705 4.062,2.605 4.062,1.854 2.498,0.953 0.938,1.855 0.938,2.607   "></polygon></g><g><polygon fill="#6C2207" points="3.812,3.51 4.062,3.363 4.062,2.902 2.498,2 0.938,2.902 0.938,3.365 1.188,3.51 2.498,2.752       "></polygon></g><g><polygon fill="#6C2207" points="2.499,3.818 2.896,4.047 3.548,3.672 2.498,3.066 1.452,3.672 2.104,4.047   "></polygon></g></g></g><g id="SvgjsG3042" featurekey="nameFeature-0" transform="matrix(1.8130330960980814,0,0,1.8130330960980814,93.60679621805316,-21.683877627537875)" fill="#121212"><path d="M1.32 37.52 l0 -3.68 l2.2 0 l1.88 2.12 c1.68 1.88 3.88 2.24 6.52 2.28 c3.16 0 6.12 -1.04 6.12 -3.68 c0 -3.24 -5.6 -6.4 -8.8 -8.2 c-2.76 -1.56 -7.4 -3.76 -7.4 -7.08 c0 -6.16 7.76 -7.28 9.92 -7.28 c2.68 0 5.4 0.6 8.28 1.8 l0.08 3.64 l-2.28 0 l-1.32 -1.6 c-1.28 -1.52 -3.24 -2.4 -5.16 -2.4 c-3.4 0 -5.28 2.4 -5.28 3.76 c0 2.84 5.76 4.88 11.36 8.56 c3.16 2.08 4.6 4.56 4.6 6.88 c0 3.92 -3.96 7.48 -10 7.48 c-7.32 0 -10.72 -2.6 -10.72 -2.6 z M42.040000000000006 34.96 l2.72 0 c-1.76 3.2 -5.16 5.44 -9.04 5.44 c-5.68 0 -11.12 -3.8 -11.12 -9.96 c0 -6.76 5.44 -10.08 11.12 -10.08 l1 0 c3.4 0 6.56 2.2 7.92 5.32 l-4.36 0 c-1.64 -2.52 -3.84 -3.88 -6.04 -3.88 c-3.12 0 -4.92 2.76 -4.92 6.28 c0 6.08 4.28 11.28 8 11.28 c2.4 0 4.16 -1.88 4.72 -4.4 z M62.68000000000001 40 l-1.08 -0.28 c-1.8 -0.48 -3.76 -0.48 -5.44 0.04 c-0.68 0.2 -1.32 0.24 -1.96 0.24 c-3.92 0 -7.04 -3.08 -7.04 -6.96 c0 -3.8 3.12 -6.92 7.04 -6.92 c1.56 0 2.96 0.48 4.04 1.24 l0 -0.04 s0.32 -4.88 -1.84 -5.48 c-2.24 -0.64 -3.04 0.68 -4.68 3.16 l-3.36 -0.04 c1.04 -2.64 3.08 -4.48 5.96 -4.48 c1.08 0 2.2 0.2 3.28 0.52 c0 0 5.08 1.56 5.08 6.32 l0 12.68 z M50.400000000000006 34.04 c0.92 3 3.2 5.12 5.52 4.6 c2.24 -0.52 3.28 -3.44 2.36 -6.56 c-0.88 -2.96 -3.48 -5.08 -5.72 -4.52 c-2.28 0.56 -3.08 3.44 -2.16 6.48 z M65.84 40 l0 -1.08 c1.2 -1.4 1.92 -3.32 1.92 -5.24 l0 -15.32 c0 -1.92 -0.72 -3.8 -1.88 -5.16 l0 -1.2 l5.88 0 l0 21.72 c0 1.88 0.72 3.8 1.96 5.2 l0 1.08 l-7.88 0 z M92.64000000000001 33.88 l2.96 0 c-1.4 3.8 -5.08 6.52 -9.52 6.52 c-5.64 0 -10.12 -4.52 -10.12 -9.96 c0 -5.56 4.48 -10.08 10.12 -10.08 c5.56 0 10.08 4.4 10.16 9.88 l-16.24 0 c0.16 0.48 0.24 1 0.4 1.56 c1.28 4.4 4.32 7.56 7.4 7.56 c2.88 0 4.44 -2.72 4.84 -5.48 z M79.80000000000001 28.6 l12.28 0 c-1.36 -4.16 -4.56 -6.8 -7.56 -6.8 c-3.04 0 -4.76 2.92 -4.76 5.92 c0 0.28 0 0.6 0.04 0.88 z M98.36000000000001 40 l0 -1.08 c1.24 -1.48 2.04 -3.36 2.04 -5.24 l0 -15.32 c0 -1.92 -0.8 -3.84 -2.04 -5.24 l0 -1.12 l8.48 0 l0 1.12 c-1.36 1.4 -2.12 3.32 -2.12 5.24 l0 15.32 c0 1.88 0.76 3.76 2.12 5.24 l0 1.08 l-8.48 0 z M109.44 40 l0 -1.08 c1.32 -1.4 2.04 -3.32 2.04 -5.24 l0 -6.64 c0 -1.96 -0.72 -3.84 -2.04 -5.24 l0 -1.12 l6.36 0 l0 2.24 c1.36 -0.76 2.92 -1.24 4.36 -1.24 c4.68 0 7.24 2.84 7.24 9.76 l0 2.24 c0 1.92 0.76 3.84 2.12 5.24 l0 1.08 l-8.56 0 l0 -1.08 c1.36 -1.4 2.12 -3.32 2.12 -5.24 l0 -4.84 c0 -3.12 -2.84 -6.2 -5.64 -5.44 c-1 0.28 -1.64 1.24 -1.64 2.28 l0 8.04 c0 1.88 0.8 3.8 2.08 5.2 l0 1.08 l-8.44 0 z M131.76000000000002 40 l0 -1.08 c1.24 -1.48 2.04 -3.36 2.04 -5.24 l0 -15.32 c0 -1.92 -0.8 -3.84 -2.04 -5.24 l0 -1.12 l8.48 0 l0 1.12 c-1.36 1.4 -2.12 3.32 -2.12 5.24 l0 15.32 c0 1.88 0.76 3.76 2.12 5.24 l0 1.08 l-8.48 0 z M145.16000000000003 32.96 l0 -10.64 l-2.96 0 l0 -1.64 l2.96 0 l0 -6.64 l4.36 -2.08 l0 8.72 l2.88 0 l0 1.64 l-2.88 0 l0 10.4 c0 1.56 0.6 2.92 1.36 3.92 c0.44 0.6 0.96 1.04 1.52 1.36 l0 2.2 c-0.92 -0.04 -1.88 -0.24 -2.88 -0.64 c-2.32 -0.96 -4.36 -2.92 -4.36 -6.6 z"></path></g><g id="SvgjsG3043" featurekey="nameFeature-1" transform="matrix(0.8266327570023825,0,0,0.8266327570023825,95.8346734091826,52.0804092809867)" fill="#121212"><path d="M2.28 40.04 l0 -21.6 c0 -1.96 -0.76 -3.84 -2.08 -5.28 l0 -1.16 l6.4 0 l0 10.24 c1.56 -1 3.52 -1.68 5.56 -1.68 c6.4 0 10.4 4.36 10.4 9.8 c0 5.36 -4.92 9.68 -10.4 9.68 c-1.08 0 -2.04 -0.12 -3 -0.44 c-2.28 -0.8 -4.76 -0.52 -6.88 0.44 z M6.6 31.68 c1.36 4.48 4.72 7.48 8.04 6.72 c3.24 -0.76 4.84 -4.96 3.48 -9.44 c-1.36 -4.4 -5.04 -7.32 -8.36 -6.6 c-3.28 0.72 -4.52 4.92 -3.16 9.32 z M22 43.72 l0 -3.72 l1.32 0 l2.56 2.6 s0.84 0.88 1.88 0.88 c0.56 0 1.16 -0.28 1.76 -1.04 l5 -6.56 l-7.6 -11.88 c-0.16 -0.28 -0.4 -0.48 -0.64 -0.64 l-2.36 -1.56 l0 -1.12 l8.12 0 l0 1.12 l-0.2 0.24 c-0.64 0.68 -0.76 1.84 -0.2 2.68 l5.04 8.12 l5.44 -7.96 c0.24 -0.36 0.4 -0.8 0.4 -1.24 c0 -0.68 -0.28 -1.32 -0.84 -1.72 l0 -1.24 l5.2 0 l0 1.24 l-1.12 0.68 c-0.24 0.16 -0.44 0.4 -0.6 0.6 l-14.56 20.32 s-2.32 2.72 -4.48 2.72 c-1.2 0 -2.6 -0.64 -4.12 -2.52 z M61.76 40 l0 -1.08 c1.32 -1.4 2.04 -3.32 2.04 -5.24 l0 -15.32 c0 -1.92 -0.72 -3.84 -2.04 -5.24 l0 -1.12 l8.52 0 l0 1.12 c-1.36 1.4 -2.04 3.32 -2.04 5.24 l0 19.8 l6.28 0 c2.12 0 4.16 -0.64 5.84 -1.88 l1.28 0 l0 3.72 l-19.88 0 z M83.28 40 l0 -1.08 c1.12 -1.4 1.72 -3.32 1.72 -5.24 l0 -6.64 c0 -1.96 -0.6 -3.84 -1.72 -5.24 l0 -1.12 l5.52 0 l0 13.04 c0 1.88 0.64 3.8 1.8 5.2 l0 1.08 l-7.32 0 z M86.36 18.92 c-1.52 0 -2.76 -1.28 -2.76 -2.8 c0 -1.56 1.24 -2.8 2.76 -2.8 c1.56 0 2.8 1.24 2.8 2.8 c0 1.52 -1.24 2.8 -2.8 2.8 z M92.92 40 l0 -1.08 c1.2 -1.4 1.92 -3.32 1.92 -5.24 l0 -15.32 c0 -1.92 -0.72 -3.8 -1.88 -5.16 l0 -1.2 l5.88 0 l0 21.72 c0 1.88 0.72 3.8 1.96 5.2 l0 1.08 l-7.88 0 z M103.32000000000001 40 l0 -1.08 c1.12 -1.4 1.72 -3.32 1.72 -5.24 l0 -6.64 c0 -1.96 -0.6 -3.84 -1.72 -5.24 l0 -1.12 l5.52 0 l0 13.04 c0 1.88 0.64 3.8 1.8 5.2 l0 1.08 l-7.32 0 z M106.4 18.92 c-1.52 0 -2.76 -1.28 -2.76 -2.8 c0 -1.56 1.24 -2.8 2.76 -2.8 c1.56 0 2.8 1.24 2.8 2.8 c0 1.52 -1.24 2.8 -2.8 2.8 z M113.24000000000001 40 l0 -1.08 c1.12 -1.4 1.72 -3.32 1.72 -5.24 l0 -6.64 c0 -1.96 -0.6 -3.84 -1.72 -5.24 l0 -1.12 l5.52 0 l0 13.04 c0 1.88 0.64 3.8 1.8 5.2 l0 1.08 l-7.32 0 z M116.32000000000001 18.92 c-1.52 0 -2.76 -1.28 -2.76 -2.8 c0 -1.56 1.24 -2.8 2.76 -2.8 c1.56 0 2.8 1.24 2.8 2.8 c0 1.52 -1.24 2.8 -2.8 2.8 z M138.68 40 l-1.08 -0.28 c-1.8 -0.48 -3.76 -0.48 -5.44 0.04 c-0.68 0.2 -1.32 0.24 -1.96 0.24 c-3.92 0 -7.04 -3.08 -7.04 -6.96 c0 -3.8 3.12 -6.92 7.04 -6.92 c1.56 0 2.96 0.48 4.04 1.24 l0 -0.04 s0.32 -4.88 -1.84 -5.48 c-2.24 -0.64 -3.04 0.68 -4.68 3.16 l-3.36 -0.04 c1.04 -2.64 3.08 -4.48 5.96 -4.48 c1.08 0 2.2 0.2 3.28 0.52 c0 0 5.08 1.56 5.08 6.32 l0 12.68 z M126.4 34.04 c0.92 3 3.2 5.12 5.52 4.6 c2.24 -0.52 3.28 -3.44 2.36 -6.56 c-0.88 -2.96 -3.48 -5.08 -5.72 -4.52 c-2.28 0.56 -3.08 3.44 -2.16 6.48 z M155.12 40 l0 -1.08 l1.52 -1.68 c0.36 -0.4 0.6 -0.84 0.6 -1.36 l0 -19.72 c0 -0.56 -0.24 -1.04 -0.6 -1.4 l-1.52 -1.64 l0 -1.12 l8.52 0 l0 1.12 l-1.52 1.64 c-0.36 0.36 -0.56 0.84 -0.56 1.4 l0 8.72 l12.8 -10.08 c0.64 -0.48 0.84 -1.28 0.68 -2.08 l0 -0.72 l6.08 0 l0 0.68 l-1.4 0.56 c-1.12 0.48 -2.28 1.08 -3.28 1.88 l-11.12 8.88 l3.52 0 l9.28 11.68 c0.6 0.76 1.24 1.4 2.08 2 l1.68 1.24 l0 1.08 l-8.48 0 l0 -1.08 c1 -0.68 1.28 -2.08 0.52 -3 l-9.12 -11.48 l-3.24 2.56 l0 8.88 c0 0.52 0.2 0.96 0.56 1.4 l1.52 1.64 l0 1.08 l-8.52 0 z M198.60000000000002 40 l-1.08 -0.28 c-1.8 -0.48 -3.76 -0.48 -5.44 0.04 c-0.68 0.2 -1.32 0.24 -1.96 0.24 c-3.92 0 -7.04 -3.08 -7.04 -6.96 c0 -3.8 3.12 -6.92 7.04 -6.92 c1.56 0 2.96 0.48 4.04 1.24 l0 -0.04 s0.32 -4.88 -1.84 -5.48 c-2.24 -0.64 -3.04 0.68 -4.68 3.16 l-3.36 -0.04 c1.04 -2.64 3.08 -4.48 5.96 -4.48 c1.08 0 2.2 0.2 3.28 0.52 c0 0 5.08 1.56 5.08 6.32 l0 12.68 z M186.32 34.04 c0.92 3 3.2 5.12 5.52 4.6 c2.24 -0.52 3.28 -3.44 2.36 -6.56 c-0.88 -2.96 -3.48 -5.08 -5.72 -4.52 c-2.28 0.56 -3.08 3.44 -2.16 6.48 z M201.88000000000002 40 l0 -1 c1.36 -1.48 2.04 -3.32 2.04 -5.32 l0 -6.6 c0 -1.96 -0.68 -3.84 -2.04 -5.24 l0 -1.16 l6.44 0 l0 2.08 c1.24 -1.24 3.6 -2.2 5.24 -2.2 c1.72 0 2.92 0.64 2.92 0.64 l-0.84 3.64 s-1.8 -1.48 -4 -1.48 c-2.92 0 -3.32 1.96 -3.32 2.48 l0 7.84 c0 2 0.76 3.84 2.04 5.32 l0 1 l-8.48 0 z M218.12 48.6 l0 -1.16 c1.32 -1.4 2.04 -3.24 2.04 -5.2 l0 -15.16 c0 -1.92 -0.72 -3.8 -2.04 -5.24 l0 -1.16 l4.2 0 c1.2 0 2.28 0.92 2.28 2.08 c1.4 -1.4 3.48 -2.04 5.52 -2.04 c5.56 0 10.52 3.48 10.52 9.72 c0 6.64 -4.96 9.72 -10.52 9.72 c-2.04 0 -3.92 -0.6 -5.52 -1.68 l0 3.8 c0 1.92 0.68 3.76 2.04 5.2 l0 1.12 l-8.52 0 z M224.64000000000001 31.8 c1.36 4.48 4.72 7.52 8 6.76 c3.28 -0.8 4.8 -5 3.48 -9.44 c-1.36 -4.52 -5.04 -7.36 -8.36 -6.6 s-4.48 4.84 -3.12 9.28 z M260.08000000000004 33.88 l2.96 0 c-1.4 3.8 -5.08 6.52 -9.52 6.52 c-5.64 0 -10.12 -4.52 -10.12 -9.96 c0 -5.56 4.48 -10.08 10.12 -10.08 c5.56 0 10.08 4.4 10.16 9.88 l-16.24 0 c0.16 0.48 0.24 1 0.4 1.56 c1.28 4.4 4.32 7.56 7.4 7.56 c2.88 0 4.44 -2.72 4.84 -5.48 z M247.24 28.6 l12.28 0 c-1.36 -4.16 -4.56 -6.8 -7.56 -6.8 c-3.04 0 -4.76 2.92 -4.76 5.92 c0 0.28 0 0.6 0.04 0.88 z M265.72 40 l0 -1.08 c1.32 -1.4 2.04 -3.32 2.04 -5.24 l0 -6.64 c0 -1.96 -0.72 -3.84 -2.04 -5.24 l0 -1.12 l6.36 0 l0 2.24 c1.36 -0.76 2.92 -1.24 4.36 -1.24 c4.68 0 7.24 2.84 7.24 9.76 l0 2.24 c0 1.92 0.76 3.84 2.12 5.24 l0 1.08 l-8.56 0 l0 -1.08 c1.36 -1.4 2.12 -3.32 2.12 -5.24 l0 -4.84 c0 -3.12 -2.84 -6.2 -5.64 -5.44 c-1 0.28 -1.64 1.24 -1.64 2.28 l0 8.04 c0 1.88 0.8 3.8 2.08 5.2 l0 1.08 l-8.44 0 z M287.68000000000006 40 l0 -1.08 c1.36 -1.48 2.08 -3.32 2.08 -5.16 l0 -15.4 c0 -1.92 -0.72 -3.84 -2.08 -5.2 l0 -1.16 l6.4 0 l0 16.44 l7.4 -5.8 l-0.28 -1.28 l0 -0.68 l6 0 l0 0.68 l-3.08 1.28 l-7.2 5.72 l2.04 -0.08 l7.64 8.36 c0.08 0.12 0.48 0.4 0.68 0.52 l2.8 1.76 l0 1.08 l-8.48 0 l0 -1.08 c1 -0.68 1.28 -2.12 0.52 -3.04 l-5.76 -7.08 l-2.28 1.8 l0 3.2 c0 1.88 0.68 3.64 2.04 5.12 l0 1.08 l-8.44 0 z M310.4800000000001 30.439999999999998 c0 -6.04 4.88 -9.92 10.44 -9.92 c5.64 0 10.64 3.76 10.64 9.92 c0 6.2 -5 9.92 -10.64 9.92 c-5.56 0 -10.44 -3.84 -10.44 -9.92 z M315.6000000000001 31.759999999999998 c1.36 4.64 4.68 7.88 7.92 7.12 c3.16 -0.76 4.64 -5.08 3.2 -9.76 c-1.36 -4.56 -5 -7.72 -8.28 -7 c-3.16 0.72 -4.24 4.96 -2.84 9.64 z"></path></g></svg>